<svg xmlns="http://www.w3.org/2000/svg" aria-hidden="true" style="position:absolute;width:0;height:0;overflow:hidden">
  <defs>
  <symbol id="icon-x" viewBox="0 0 32 32">
<path d="M32 3.223l-3.223-3.223-12.777 12.777-12.777-12.777-3.223 3.223 12.777 12.777-12.777 12.777 3.223 3.223 12.777-12.777 12.777 12.777 3.223-3.223-12.777-12.777 12.777-12.777z"></path>
</symbol>
    <symbol id="icon-heart" viewBox="0 0 32 32">
      <path stroke-linecap="round" stroke-linejoin="round" stroke-width="2.667" d="M27.787 6.147a7.326 7.326 0 0 0-10.373 0L16.001 7.56l-1.413-1.413a7.333 7.333 0 0 0-10.374 0 7.333 7.333 0 0 0 0 10.374l11.787 11.787 11.787-11.787a7.345 7.345 0 0 0 2.15-5.187 7.33 7.33 0 0 0-2.15-5.187z"/>
    </symbol>
    <symbol id="icon-chevron-right" viewBox="0 0 32 32">
      <path fill="#141414" stroke-linecap="round" stroke-linejoin="round" stroke-width="1.333" d="m12 24 8-8-8-8"/>
    </symbol>
    <symbol id="icon-chevron-left" viewBox="0 0 32 32">
      <path fill="#141414" stroke-linecap="round" stroke-linejoin="round" stroke-width="1.333" d="m20 24-8-8 8-8"/>
    </symbol>
    <symbol id="icon-logo" viewBox="0 0 31 32">
      <path d="M27.681 18.564 20.933 3.107l-1.472-1.02-1.725-.549L15.403.91l-2.74 1.177-1.827 1.02 6.9 15.457h9.944zM3.464 13.395l6.748 15.493 1.471 1.022 1.725.55 2.334.629 2.739-1.18 1.827-1.022-6.9-15.493H3.464z"/>
      <path d="M10.476 3.309 0 18.451l10.476.112 7.572-15.254c.532-1.56 2.195-.65 2.961 0-3.27-5.992-8.385-2.497-10.533 0zm10.152 25.382 10.476-15.142-10.476-.112-7.573 15.254c-.531 1.56-2.195.65-2.96 0 3.27 5.992 8.385 2.497 10.533 0z"/>
    </symbol>
    <symbol id="icon-gg_menu-left" viewBox="0 0 32 32">
      <path  d="M17.273 4.665c-1.768.29-2.795.998-3.17 2.183-.209.664-.293 1.335-.327 2.658l-.032 1.214h-2.118v3.04h2.134v13.28h4.053l.027-13.2 2.64-.029v-2.983l-2.64-.029-.017-.64c-.025-.975.024-1.382.193-1.582.237-.282.416-.325 1.49-.353l.974-.026V4.639h-.418c-.23 0-.848-.011-1.374-.025-.681-.018-1.087-.005-1.415.05z"/>
    </symbol>
    <symbol id="icon-gg_menu-left" viewBox="0 0 32 32">
      <path  d="M3.56 6.743a1.396 1.396 0 0 0-.715.599l-.004.006c-.201.341-.209.873-.021 1.256.157.32.521.597.887.677.187.041 1.929.053 5.787.041 5.36-.016 5.527-.019 5.731-.12 1.068-.531.995-2.063-.117-2.46-.296-.105-11.251-.105-11.547 0zm-.004 8.01c-.488.149-.889.712-.889 1.247 0 .323.159.695.399.935.435.435-.751.399 12.935.399 13.689 0 12.5.037 12.936-.4.716-.716.377-1.964-.6-2.211-.153-.039-3.989-.055-12.373-.052-10.583.003-12.183.013-12.407.083zm.141 7.964a2.03 2.03 0 0 0-.424.189l.009-.005c-.925.543-.756 1.988.277 2.356.296.105 16.584.105 16.88 0a1.347 1.347 0 0 0 .604-2.083l.002.003a1.572 1.572 0 0 0-.405-.321l-.008-.004-.287-.159-8.24-.008c-4.532-.005-8.316.009-8.409.032z"/>
    </symbol>
    <symbol id="icon-instagram" viewBox="0 0 32 32">
<path d="M28.717 10.756c-0.016-1.074-0.215-2.14-0.596-3.145-0.667-1.716-2.024-3.073-3.743-3.737-0.994-0.373-2.044-0.573-3.108-0.596-1.367-0.061-1.801-0.078-5.273-0.078s-3.916 0-5.274 0.078c-1.062 0.023-2.112 0.223-3.106 0.596-1.719 0.664-3.078 2.021-3.743 3.737-0.374 0.992-0.576 2.041-0.596 3.101-0.061 1.367-0.080 1.8-0.080 5.265s0 3.909 0.080 5.265c0.021 1.062 0.222 2.109 0.596 3.104 0.667 1.714 2.024 3.071 3.744 3.735 0.989 0.386 2.040 0.605 3.106 0.639 1.369 0.061 1.803 0.079 5.274 0.079s3.917 0 5.274-0.079c1.062-0.021 2.112-0.221 3.108-0.595 1.719-0.666 3.076-2.022 3.743-3.737 0.374-0.993 0.574-2.041 0.596-3.104 0.061-1.365 0.080-1.798 0.080-5.265-0.003-3.466-0.003-3.906-0.082-5.264zM15.99 22.531c-3.631 0-6.572-2.936-6.572-6.561s2.941-6.561 6.572-6.561c3.628 0 6.572 2.936 6.572 6.561s-2.944 6.561-6.572 6.561zM22.823 10.696c-0.849 0-1.532-0.684-1.532-1.53s0.684-1.53 1.532-1.53c0.846 0 1.531 0.684 1.531 1.53s-0.685 1.53-1.531 1.53z"></path>
<path d="M15.992 19.976c2.211 0 4.004-1.793 4.004-4.004s-1.793-4.004-4.004-4.004c-2.211 0-4.004 1.793-4.004 4.004s1.793 4.004 4.004 4.004z"></path>
</symbol>
    <symbol id="icon-youtube" viewBox="0 0 32 32">
      <path  d="M9.546 5.923c-3.041.122-4.53.395-5.701 1.048-.411.229-.926.734-1.175 1.157-.246.415-.509 1.221-.61 1.872-.15.959-.207 3.115-.178 6.722.027 3.475.061 4.139.255 5.104.417 2.072 1.399 3.017 3.638 3.502 1.521.33 3.323.4 10.251.401 5.449 0 6.906-.035 8.64-.213 2.016-.206 3.19-.622 3.976-1.408.607-.607.963-1.395 1.143-2.527.143-.894.2-3.113.174-6.648-.026-3.602-.062-4.254-.288-5.28-.211-.961-.473-1.544-.909-2.027-.895-.995-2.446-1.493-5.168-1.657-1.195-.072-12.477-.109-14.048-.046zm7.268 7.33c2.339 1.402 4.253 2.567 4.253 2.587s-1.913 1.185-4.253 2.587c-10.082 5.747-11.51 6.616-12.937 7.488l8.563-4.86-.12.078V10.548l.12.078c.066.042 2.034 1.224 4.374 2.627z"/>
    </symbol>
    <symbol id="icon-facebook" viewBox="0 0 28 28">
      <path d="M17.08 4.06h.84v3.15h-1.05c-.42 0-.84 0-1.05.21-.21.21-.21.42-.21.91v1.12h2.31v2.66h-2.31v11.55h-3.57V12.04h-1.89V9.38h1.89v-.91c0-1.54.21-2.66.63-3.15.63-.91 1.89-1.33 3.78-1.33.21.07.42.07.63.07Z" />
      </symbol>
      <symbol id="icon-x" viewBox="0 0 32 32">
      <path fill="none" stroke="#fff" stroke-linecap="round" stroke-linejoin="round" stroke-width="1.733" d="M24 8 8 24M8 8l16 16" style="stroke:var(--color1, #fff)"/>
    </symbol>
  </defs>
</svg>
