<svg xmlns="http://www.w3.org/2000/svg" aria-hidden="true" style="position:absolute;width:0;height:0;overflow:hidden">
  <defs>
  <symbol id="icon-x" viewBox="0 0 32 32">
<path d="M32 3.223l-3.223-3.223-12.777 12.777-12.777-12.777-3.223 3.223 12.777 12.777-12.777 12.777 3.223 3.223 12.777-12.777 12.777 12.777 3.223-3.223-12.777-12.777 12.777-12.777z"></path>
</symbol>
    <symbol id="icon-heart" viewBox="0 0 32 32">
      <path stroke-linecap="round" stroke-linejoin="round" stroke-width="2.667" d="M27.787 6.147a7.326 7.326 0 0 0-10.373 0L16.001 7.56l-1.413-1.413a7.333 7.333 0 0 0-10.374 0 7.333 7.333 0 0 0 0 10.374l11.787 11.787 11.787-11.787a7.345 7.345 0 0 0 2.15-5.187 7.33 7.33 0 0 0-2.15-5.187z"/>
    </symbol>
    <symbol id="icon-chevron-right" viewBox="0 0 32 32">
      <path fill="#141414" stroke-linecap="round" stroke-linejoin="round" stroke-width="1.333" d="m12 24 8-8-8-8"/>
    </symbol>
    <symbol id="icon-chevron-left" viewBox="0 0 32 32">
      <path fill="#141414" stroke-linecap="round" stroke-linejoin="round" stroke-width="1.333" d="m20 24-8-8 8-8"/>
    </symbol>
    <symbol id="icon-logo" viewBox="0 0 31 32">
      <path d="M27.681 18.564 20.933 3.107l-1.472-1.02-1.725-.549L15.403.91l-2.74 1.177-1.827 1.02 6.9 15.457h9.944zM3.464 13.395l6.748 15.493 1.471 1.022 1.725.55 2.334.629 2.739-1.18 1.827-1.022-6.9-15.493H3.464z"/>
      <path d="M10.476 3.309 0 18.451l10.476.112 7.572-15.254c.532-1.56 2.195-.65 2.961 0-3.27-5.992-8.385-2.497-10.533 0zm10.152 25.382 10.476-15.142-10.476-.112-7.573 15.254c-.531 1.56-2.195.65-2.96 0 3.27 5.992 8.385 2.497 10.533 0z"/>
    </symbol>
    <symbol id="icon-gg_menu-left" viewBox="0 0 32 32">
      <path  d="M17.273 4.665c-1.768.29-2.795.998-3.17 2.183-.209.664-.293 1.335-.327 2.658l-.032 1.214h-2.118v3.04h2.134v13.28h4.053l.027-13.2 2.64-.029v-2.983l-2.64-.029-.017-.64c-.025-.975.024-1.382.193-1.582.237-.282.416-.325 1.49-.353l.974-.026V4.639h-.418c-.23 0-.848-.011-1.374-.025-.681-.018-1.087-.005-1.415.05z"/>
    </symbol>
    <symbol id="icon-gg_menu-left" viewBox="0 0 32 32">
      <path  d="M3.56 6.743a1.396 1.396 0 0 0-.715.599l-.004.006c-.201.341-.209.873-.021 1.256.157.32.521.597.887.677.187.041 1.929.053 5.787.041 5.36-.016 5.527-.019 5.731-.12 1.068-.531.995-2.063-.117-2.46-.296-.105-11.251-.105-11.547 0zm-.004 8.01c-.488.149-.889.712-.889 1.247 0 .323.159.695.399.935.435.435-.751.399 12.935.399 13.689 0 12.5.037 12.936-.4.716-.716.377-1.964-.6-2.211-.153-.039-3.989-.055-12.373-.052-10.583.003-12.183.013-12.407.083zm.141 7.964a2.03 2.03 0 0 0-.424.189l.009-.005c-.925.543-.756 1.988.277 2.356.296.105 16.584.105 16.88 0a1.347 1.347 0 0 0 .604-2.083l.002.003a1.572 1.572 0 0 0-.405-.321l-.008-.004-.287-.159-8.24-.008c-4.532-.005-8.316.009-8.409.032z"/>
    </symbol>
    <symbol id="icon-instagram" viewBox="0 0 32 32">
      <path  d="M11.12 3.261c-2.201.104-3.519.462-4.77 1.295-1.311.873-2.239 2.165-2.691 3.744-.266.931-.341 1.546-.409 3.41-.071 1.926-.034 8.835.053 9.929.336 4.239 2.806 6.686 7.125 7.058.352.031 2.445.069 4.649.086 5.438.041 7.066-.033 8.438-.389 1.701-.441 3.053-1.397 3.993-2.819.689-1.046 1.078-2.362 1.201-4.081.088-1.222.089-9.739.001-10.934-.173-2.363-.79-3.906-2.077-5.192-1.083-1.083-2.431-1.719-4.195-1.978-.299-.043-1.179-.104-1.957-.135-1.645-.064-7.958-.059-9.36.006zm12.375 4.54a1.522 1.522 0 0 1-.006 2.737l-.009.004c-1.182.578-2.493-.547-2.122-1.821.119-.409.575-.885.967-1.01a1.636 1.636 0 0 1 1.18.094l-.01-.004zm-6.266 1.722c2.41.457 4.395 2.28 5.085 4.67.946 3.281-.877 6.808-4.114 7.96-1.314.469-2.929.49-4.251.058-2.379-.776-4.062-2.797-4.481-5.381-.062-.376-.032-1.542.05-2.007a7.057 7.057 0 0 1 1.066-2.597l-.016.026c.341-.507 1.28-1.418 1.83-1.776a6.6 6.6 0 0 1 3.614-1.066c.431 0 .852.041 1.26.119l-.042-.007z"/>
    </symbol>
    <symbol id="icon-youtube" viewBox="0 0 32 32">
      <path  d="M9.546 5.923c-3.041.122-4.53.395-5.701 1.048-.411.229-.926.734-1.175 1.157-.246.415-.509 1.221-.61 1.872-.15.959-.207 3.115-.178 6.722.027 3.475.061 4.139.255 5.104.417 2.072 1.399 3.017 3.638 3.502 1.521.33 3.323.4 10.251.401 5.449 0 6.906-.035 8.64-.213 2.016-.206 3.19-.622 3.976-1.408.607-.607.963-1.395 1.143-2.527.143-.894.2-3.113.174-6.648-.026-3.602-.062-4.254-.288-5.28-.211-.961-.473-1.544-.909-2.027-.895-.995-2.446-1.493-5.168-1.657-1.195-.072-12.477-.109-14.048-.046zm7.268 7.33c2.339 1.402 4.253 2.567 4.253 2.587s-1.913 1.185-4.253 2.587c-10.082 5.747-11.51 6.616-12.937 7.488l8.563-4.86-.12.078V10.548l.12.078c.066.042 2.034 1.224 4.374 2.627z"/>
    </symbol>
  </defs>
</svg>
